<svg id="svg10" data-adreal-did="1681939383381650" version="1.1" viewBox="0 0 76.2 76.2"><defs id="defs1"><style id="current-color-scheme" type="text/css">.ColorScheme-Text{color:#fcfcfc}</style></defs><path id="path2" fill="currentColor" fill-opacity="1" fill-rule="evenodd" stroke="none" d="M 19.201412,11.643734 44.105837,25.579317 52.088812,11.771891 Z M 27.097571,50.40054 19.867005,64.559368 H 52.277429 Z" class="ColorScheme-Text" opacity="1"/><path id="path3" fill="currentColor" fill-opacity=".75" fill-rule="evenodd" stroke="none" d="M 19.201669,11.643595 44.10598,25.579275 H 26.999148 L 19.870672,37.901032 27.09742,50.400434 19.866892,64.555336 4.2341358,37.523064 19.201669,11.639816" class="ColorScheme-Text" opacity="1"/><path id="path4" fill="currentColor" fill-opacity="1" fill-rule="evenodd" stroke="none" d="M 26.999148,25.579275 52.088664,11.772104 44.10598,25.579275 Z M 4.2341358,37.523064 26.999148,25.579275 19.870672,37.901032 Z" class="ColorScheme-Text" opacity="1"/><path id="path5" fill="currentColor" fill-opacity="1" fill-rule="evenodd" stroke="none" d="m 26.999148,25.579275 -7.797479,-13.93568 0.669003,26.264997 z" class="ColorScheme-Text" opacity="1"/><path id="path7" fill="currentColor" fill-opacity="1" fill-rule="evenodd" stroke="none" d="M 19.870672,37.904812 7.9268832,43.876706 19.870672,64.559115 Z" class="ColorScheme-Text" opacity="1"/><path id="path8" fill="currentColor" fill-opacity="1" fill-rule="evenodd" stroke="none" d="M 7.9306629,43.880486 27.09364,50.400434 19.870672,37.904812 Z" class="ColorScheme-Text" opacity="1"/><ellipse id="circle8" cx="66.58371" cy="44.670353" fill="currentColor" fill-opacity="1" fill-rule="evenodd" stroke="none" class="ColorScheme-Text" opacity="1" rx="5.3829179" ry="5.373035"/><ellipse id="circle9" cx="55.227791" cy="32.150059" fill="currentColor" fill-opacity="1" fill-rule="evenodd" stroke="none" class="ColorScheme-Text" opacity="1" rx="4.0867729" ry="4.0792699"/><ellipse id="circle10" cx="60.824821" cy="18.029013" fill="currentColor" fill-opacity="1" fill-rule="evenodd" stroke="none" class="ColorScheme-Text" opacity="1" rx="2.1044991" ry="2.1006355"/><path id="path18" fill="currentColor" fill-opacity=".75" fill-rule="evenodd" stroke="none" d="M 27.09742,50.400434 52.277648,64.559115 60.464435,50.400434 Z" class="ColorScheme-Text" opacity="1"/></svg>